#N canvas 75 53 1845 1027 10;
#X obj 244 441 hsl 128 15 0 1 0 0 empty empty Volume -2 -8 0 10 -262144
-1 -1 5676 1;
#X obj 217 702 *~;
#X obj 285 584 line~;
#X msg 260 496 \$1 10;
#X floatatom 313 479 5 0 0 0 - - -;
#X obj 77 383 hsl 128 15 200 600 0 0 empty empty Freq -2 -8 0 10 -262144
-1 -1 4135 1;
#X obj 99 593 osc~;
#X floatatom 152 441 5 0 0 0 - - -;
#X obj 131 516 line~;
#X msg 81 455 \$1 10;
#N canvas 875 318 450 300 miOscilador 0;
#X obj 41 217 *~;
#X obj 117 189 line~;
#X msg 119 141 \$1 10;
#X obj 30 132 line~;
#X msg 33 88 \$1 10;
#X obj 34 38 inlet freq;
#X obj 127 88 inlet volum;
#X obj 34 254 outlet~ salida;
#X obj 37 175 osc~ 440;
#X connect 0 0 7 0;
#X connect 1 0 0 1;
#X connect 2 0 1 0;
#X connect 3 0 8 0;
#X connect 4 0 3 0;
#X connect 5 0 4 0;
#X connect 6 0 2 0;
#X connect 8 0 0 0;
#X restore 509 576 pd miOscilador;
#X floatatom 94 273 5 0 0 0 - - -;
#X obj 447 405 * 2, f 5;
#X obj 533 451 hsl 128 15 0 1 0 0 empty empty Volume -2 -8 0 10 -262144
-1 -1 2748 1;
#X floatatom 558 501 5 0 0 0 - - -;
#X obj 803 830 *~, f 10;
#X obj 805 971 dac~;
#X obj 980 895 line~;
#X msg 1000 851 \$1 10;
#X obj 1004 797 hsl 128 15 0 0.8 0 0 empty empty Volume -2 -8 0 10
-262144 -1 -1 11900 1;
#X floatatom 1081 833 5 0 0 0 - - -;
#X obj 818 452 hsl 128 15 0 1 0 0 empty empty Volume -2 -8 0 10 -262144
-1 -1 6275 1;
#X floatatom 857 511 5 0 0 0 - - -;
#N canvas 765 318 450 300 miOscilador 0;
#X obj 41 217 *~;
#X obj 117 189 line~;
#X obj 30 132 line~;
#X msg 33 88 \$1 10;
#X obj 34 38 inlet freq;
#X obj 127 88 inlet volum;
#X obj 34 254 outlet~ salida;
#X obj 37 175 osc~ 440;
#X msg 119 141 \$1 10;
#X connect 0 0 6 0;
#X connect 1 0 0 1;
#X connect 2 0 7 0;
#X connect 3 0 2 0;
#X connect 4 0 3 0;
#X connect 5 0 8 0;
#X connect 7 0 0 0;
#X connect 8 0 1 0;
#X restore 976 568 pd miOscilador;
#X obj 1086 455 hsl 128 15 0 1 0 0 empty empty Volume -2 -8 0 10 -262144
-1 -1 3893 1;
#X floatatom 1108 494 5 0 0 0 - - -;
#N canvas 820 318 450 300 miOscilador 0;
#X obj 41 217 *~;
#X obj 117 189 line~;
#X msg 119 141 \$1 10;
#X obj 30 132 line~;
#X msg 33 88 \$1 10;
#X obj 34 38 inlet freq;
#X obj 127 88 inlet volum;
#X obj 34 254 outlet~ salida;
#X obj 37 175 osc~ 440;
#X connect 0 0 7 0;
#X connect 1 0 0 1;
#X connect 2 0 1 0;
#X connect 3 0 8 0;
#X connect 4 0 3 0;
#X connect 5 0 4 0;
#X connect 6 0 2 0;
#X connect 8 0 0 0;
#X restore 1301 540 pd miOscilador;
#X obj 1368 450 hsl 128 15 0 1 0 0 empty empty Volume -2 -8 0 10 -262144
-1 -1 5410 1;
#X floatatom 1386 501 5 0 0 0 - - -;
#N canvas 820 318 450 300 miOscilador 0;
#X obj 33 218 *~;
#X obj 119 187 line~;
#X msg 119 141 \$1 10;
#X obj 32 135 line~;
#X msg 33 91 \$1 10;
#X obj 33 38 inlet freq;
#X obj 119 88 inlet volum;
#X obj 34 254 outlet~ salida;
#X obj 33 176 osc~ 440;
#X connect 0 0 7 0;
#X connect 1 0 0 1;
#X connect 2 0 1 0;
#X connect 3 0 8 0;
#X connect 4 0 3 0;
#X connect 5 0 4 0;
#X connect 6 0 2 0;
#X connect 8 0 0 0;
#X restore 1507 575 pd miOscilador;
#X obj 1601 490 hsl 128 15 0 1 0 0 empty empty Volume -2 -8 0 10 -262144
-1 -1 7528 1;
#X floatatom 1601 537 5 0 0 0 - - -;
#X obj 711 402 * 3;
#X obj 1023 406 * 4;
#X obj 1331 403 * 5;
#X obj 1586 411 * 6, f 5;
#N canvas 820 318 450 300 miOscilador 0;
#X obj 41 217 *~;
#X obj 117 189 line~;
#X msg 119 141 \$1 10;
#X obj 30 132 line~;
#X msg 33 88 \$1 10;
#X obj 34 38 inlet freq;
#X obj 127 88 inlet volum;
#X obj 34 254 outlet~ salida;
#X obj 37 175 osc~ 440;
#X connect 0 0 7 0;
#X connect 1 0 0 1;
#X connect 2 0 1 0;
#X connect 3 0 8 0;
#X connect 4 0 3 0;
#X connect 5 0 4 0;
#X connect 6 0 2 0;
#X connect 8 0 0 0;
#X restore 734 573 pd miOscilador;
#X obj 819 68 tgl 15 0 empty empty empty 17 7 0 10 -262144 -1 -1 1
1;
#X obj 821 124 metro 500;
#X obj 924 106 hsl 128 15 0 1500 0 0 empty empty empty -2 -8 0 10 -262144
-1 -1 3900 1;
#X floatatom 946 154 5 0 1500 0 - - -;
#N canvas 75 81 1008 300 MegaRandomVol 0;
#N canvas 75 81 450 300 RandVol 0;
#X obj 39 126 / 100;
#X obj 39 172 line;
#X obj 38 97 random 100;
#X obj 39 67 inlet;
#X obj 39 198 outlet;
#X msg 39 149 \$1 1000;
#X connect 0 0 5 0;
#X connect 1 0 4 0;
#X connect 2 0 0 0;
#X connect 3 0 2 0;
#X connect 5 0 1 0;
#X restore 50 130 pd RandVol;
#X obj 55 33 inlet;
#X obj 50 186 outlet;
#X obj 807 134;
#N canvas 75 81 450 300 RandVol 0;
#X obj 39 126 / 100;
#X obj 39 172 line;
#X obj 38 97 random 100;
#X obj 39 67 inlet;
#X obj 39 198 outlet;
#X msg 39 149 \$1 1000;
#X connect 0 0 5 0;
#X connect 1 0 4 0;
#X connect 2 0 0 0;
#X connect 3 0 2 0;
#X connect 5 0 1 0;
#X restore 126 129 pd RandVol;
#X obj 126 184 outlet;
#N canvas 75 81 450 300 RandVol 0;
#X obj 39 126 / 100;
#X obj 39 172 line;
#X obj 38 97 random 100;
#X obj 39 67 inlet;
#X obj 39 198 outlet;
#X msg 39 149 \$1 1000;
#X connect 0 0 5 0;
#X connect 1 0 4 0;
#X connect 2 0 0 0;
#X connect 3 0 2 0;
#X connect 5 0 1 0;
#X restore 202 129 pd RandVol;
#X obj 202 187 outlet;
#N canvas 75 81 450 300 RandVol 0;
#X obj 39 126 / 100;
#X obj 39 172 line;
#X obj 38 97 random 100;
#X obj 39 67 inlet;
#X obj 39 198 outlet;
#X msg 39 149 \$1 1000;
#X connect 0 0 5 0;
#X connect 1 0 4 0;
#X connect 2 0 0 0;
#X connect 3 0 2 0;
#X connect 5 0 1 0;
#X restore 284 129 pd RandVol;
#X obj 284 185 outlet;
#N canvas 75 81 450 300 RandVol 0;
#X obj 39 126 / 100;
#X obj 39 172 line;
#X obj 38 97 random 100;
#X obj 39 67 inlet;
#X obj 39 198 outlet;
#X msg 39 149 \$1 1000;
#X connect 0 0 5 0;
#X connect 1 0 4 0;
#X connect 2 0 0 0;
#X connect 3 0 2 0;
#X connect 5 0 1 0;
#X restore 363 131 pd RandVol;
#X obj 363 187 outlet;
#N canvas 75 81 450 300 RandVol 0;
#X obj 39 126 / 100;
#X obj 39 172 line;
#X obj 38 97 random 100;
#X obj 39 67 inlet;
#X obj 39 198 outlet;
#X msg 39 149 \$1 1000;
#X connect 0 0 5 0;
#X connect 1 0 4 0;
#X connect 2 0 0 0;
#X connect 3 0 2 0;
#X connect 5 0 1 0;
#X restore 447 129 pd RandVol;
#X obj 447 185 outlet;
#X connect 0 0 2 0;
#X connect 1 0 0 0;
#X connect 1 0 4 0;
#X connect 1 0 6 0;
#X connect 1 0 8 0;
#X connect 1 0 10 0;
#X connect 1 0 12 0;
#X connect 4 0 5 0;
#X connect 6 0 7 0;
#X connect 8 0 9 0;
#X connect 10 0 11 0;
#X connect 12 0 13 0;
#X restore 823 176 pd MegaRandomVol;
#X connect 0 0 3 0;
#X connect 0 0 4 0;
#X connect 1 0 15 0;
#X connect 2 0 1 1;
#X connect 3 0 2 0;
#X connect 5 0 7 0;
#X connect 5 0 9 0;
#X connect 6 0 1 0;
#X connect 8 0 6 0;
#X connect 9 0 8 0;
#X connect 10 0 15 0;
#X connect 11 0 5 0;
#X connect 11 0 12 0;
#X connect 11 0 32 0;
#X connect 11 0 33 0;
#X connect 11 0 34 0;
#X connect 11 0 35 0;
#X connect 12 0 10 0;
#X connect 13 0 14 0;
#X connect 14 0 10 1;
#X connect 15 0 16 0;
#X connect 15 0 16 1;
#X connect 17 0 15 1;
#X connect 18 0 17 0;
#X connect 19 0 20 0;
#X connect 19 0 18 0;
#X connect 21 0 22 0;
#X connect 21 0 36 1;
#X connect 23 0 15 0;
#X connect 24 0 25 0;
#X connect 25 0 23 1;
#X connect 26 0 15 0;
#X connect 27 0 28 0;
#X connect 28 0 26 1;
#X connect 29 0 15 0;
#X connect 30 0 31 0;
#X connect 31 0 29 1;
#X connect 32 0 36 0;
#X connect 33 0 23 0;
#X connect 34 0 26 0;
#X connect 35 0 29 0;
#X connect 36 0 15 0;
#X connect 37 0 38 0;
#X connect 38 0 41 0;
#X connect 39 0 40 0;
#X connect 40 0 38 1;
#X connect 41 0 0 0;
#X connect 41 1 13 0;
#X connect 41 2 21 0;
#X connect 41 3 24 0;
#X connect 41 4 27 0;
#X connect 41 5 30 0;
